<svg xmlns="http://www.w3.org/2000/svg" xmlns:xlink="http://www.w3.org/1999/xlink" xmlns:fi="http://pattern.flaticon.com/" x="0" y="0" width="700" height="350" viewBox="0 0 700 350"><rect x="0px" y="0px" width="100%" height="100%" opacity="1" fill="#b5ffec"/><defs><g transform="matrix(0.12083768099546432 0 0 0.12083768099546432 250.05186548642814 62.12717692145668)" id="L1_0"><g><path d="m468.364 228.898c-11.714-12.931-25.295-32.522-25.295-65.045 0-53.3 10.841-67.755 10.841-93.953 0-19.957-17.985-36.136-37.943-36.136-19.957 0-37.943 16.179-37.943 36.136 0 26.198 10.841 40.653 10.841 93.953 0 32.522-13.582 52.114-25.295 65.045-15.909 17.563-36.136 34.329-36.136 87.629 0 48.783 39.749 161.708 39.749 161.708h97.567s39.749-112.925 39.749-161.708c.001-53.3-20.226-70.066-36.135-87.629z" fill="#eff3f5"/><path d="m497.712 271.239c-12.264 95.903-58.694 167.247-114.106 167.247-11.08 0-21.8-2.855-31.96-8.185 8.299 27.367 15.538 47.935 15.538 47.935h97.567s39.749-112.925 39.749-161.708c0-19.294-2.652-33.799-6.788-45.289z" fill="#c9e2e7"/><path d="m333.256 274.068h165.423c-5.35-16.482-13.685-26.995-21.981-36.136h-121.46c-8.298 9.141-16.633 19.653-21.982 36.136z" fill="#97e4f9"/></g><path d="m7.5 199.431h228.382v278.805h-228.382z" fill="#fbe77b"/><path d="m76.277 338.833c0 59.839 33.108 112.084 81.963 139.402h77.643v-278.804h-77.643c-48.855 27.319-81.963 79.563-81.963 139.402z" fill="#fcdd2e"/><path d="m7.5 247.919h228.382v181.829h-228.382z" fill="#fba615"/><path d="m76.277 338.833c0 33.76 10.546 65.099 28.502 90.915h131.103v-181.829h-131.103c-17.956 25.815-28.502 57.154-28.502 90.914z" fill="#fa9801"/><path d="m315.741 433.381v-203.238l128.207-40.355-38.577 90.066 93.076 51.909-93.076 51.907 38.577 89.056z" fill="#fb636f"/><path d="m346.045 410.117 43.462 11.625-16.736-56.419 57.067-33.561-62.958-40.708 22.627-49.272-43.462 11.625z" fill="#fbe77b"/><g><circle cx="235" cy="338" r="139" fill="#b9ea6a"/><path d="m321.676 228.956c18.497 23.656 29.525 53.437 29.525 85.794 0 76.99-62.413 139.402-139.402 139.402-32.357 0-62.137-11.027-85.794-29.525 25.515 32.631 65.245 53.608 109.878 53.608 76.99 0 139.402-62.413 139.402-139.402 0-44.632-20.978-84.363-53.609-109.877z" fill="#a1e42c"/><circle cx="215" cy="250" r="17" fill="#434343"/><circle cx="160" cy="288" r="17" fill="#434343"/><circle cx="216" cy="314" r="17" fill="#434343"/></g><g><path d="m505.813 271.756c-5.723-17.637-14.705-29.103-23.559-38.864-1.519-1.657-2.098-2.261-8.336-9.025-10.871-12.005-23.35-29.675-23.35-60.016 0-30.557 3.701-48.249 6.675-62.465 2.235-10.684 4.165-19.911 4.165-31.485 0-23.655-20.809-43.64-45.439-43.64-24.637 0-45.45 19.984-45.45 43.64 0 11.575 1.932 20.803 4.169 31.487 1.84 8.784 3.924 18.74 5.26 31.974.416 4.122 4.098 7.133 8.215 6.709 4.121-.416 7.125-4.094 6.709-8.215-1.415-14.023-3.586-24.394-5.502-33.542-2.151-10.275-3.851-18.392-3.851-28.413 0-15.257 14.229-28.64 30.45-28.64 16.216 0 30.439 13.383 30.439 28.64 0 10.022-1.698 18.139-3.848 28.414-3.115 14.893-6.992 33.427-6.992 65.536 0 7.308.654 14.002 1.78 20.154l-46.65 14.682c3.331-9.525 5.208-19.727 5.593-30.499.148-4.14-3.088-7.615-7.228-7.763-4.088-.142-7.615 3.087-7.763 7.228-.491 13.747-3.612 25.877-9.517 36.988l-49.319 15.522c-11.165-8.173-23.592-14.846-37.042-19.664-3.9-1.397-8.194.632-9.59 4.531-1.396 3.9.632 8.193 4.531 9.59 52.287 18.728 87.418 68.646 87.418 124.215 0 72.731-59.171 131.902-131.902 131.902s-131.902-59.171-131.902-131.902 59.171-131.902 131.902-131.902c4.021 0 8.085.184 12.076.546 4.131.369 7.773-2.668 8.147-6.792.374-4.126-2.667-7.773-6.792-8.147-4.441-.402-8.96-.606-13.432-.606h-137.463c-4.143 0-7.5 3.357-7.5 7.5s3.357 7.5 7.5 7.5h72.847c-16.845 8.286-31.884 19.701-44.348 33.488h-119.414c-4.143 0-7.5 3.357-7.5 7.5s3.357 7.5 7.5 7.5h107.53c-6.52 9.417-11.97 19.627-16.17 30.457h-58.241c-4.143 0-7.5 3.357-7.5 7.5s3.357 7.5 7.5 7.5h53.342c-2.621 9.792-4.263 19.979-4.792 30.457h-18.245c-4.143 0-7.5 3.357-7.5 7.5s3.357 7.5 7.5 7.5h18.245c.53 10.478 2.171 20.665 4.792 30.457h-63.443c-4.143 0-7.5 3.357-7.5 7.5s3.357 7.5 7.5 7.5h68.342c4.2 10.83 9.65 21.041 16.17 30.458h-107.53c-4.143 0-7.5 3.357-7.5 7.5s3.357 7.5 7.5 7.5h119.415c12.464 13.787 27.503 25.201 44.347 33.487h-72.847c-4.143 0-7.5 3.357-7.5 7.5s3.357 7.5 7.5 7.5h137.467c38.172 0 72.986-14.639 99.134-38.592l15.498 4.756c5.466 17.097 9.547 28.707 9.591 28.83 1.057 3.001 3.893 5.009 7.074 5.009h97.57c3.183 0 6.018-2.008 7.074-5.01.051-.144 5.128-14.594 11.556-35.028 1.243-3.951-.952-8.161-4.904-9.404-3.953-1.242-8.162.953-9.404 4.904-4.117 13.09-7.668 23.677-9.668 29.538h-8.226c-.092-.335-.206-.667-.347-.991l-35.882-82.833 79.468-44.32c-2.848 17.369-8.02 39.398-15.352 65.255-1.13 3.985 1.185 8.132 5.17 9.262.684.193 1.372.286 2.05.286 3.27 0 6.275-2.155 7.212-5.456 12.278-43.304 18.504-75.406 18.504-95.414 0-17.315-2.023-31.962-6.187-44.774zm-77.539-26.326h45.067c4.937 5.615 10.099 12.254 14.308 21.141h-68.432zm31.454-15h-25.028l9.958-23.246c4.457 9.615 9.953 17.212 15.07 23.246zm-81.22 180.607-12.848-3.437c2.688-5.052 5.091-10.276 7.184-15.655zm1.023-102.873 36.027 23.295-33.284 19.575c.333-4.024.511-8.092.511-12.201-.001-10.448-1.12-20.716-3.254-30.669zm-12.505-35.4c-2.591-5.134-5.479-10.106-8.642-14.894l17.65-4.721zm5.499 197.975c-1.092-3.199-2.648-7.813-4.503-13.466l43.878 13.466zm29.192-93.619c-3.364 1.876-4.76 5.996-3.229 9.531l32.115 74.137-71.944-22.079c-.038-.011-.075-.024-.113-.035l-11.76-3.609c3.883-4.469 7.502-9.173 10.83-14.09l29.953 8.012c.641.172 1.291.255 1.938.255 1.997 0 3.943-.799 5.374-2.269 1.894-1.945 2.588-4.762 1.816-7.364l-15.068-50.795 52.011-30.588c2.242-1.318 3.642-3.705 3.696-6.306.056-2.602-1.241-5.045-3.426-6.457l-57.504-37.182 19.916-43.37c1.213-2.641.791-5.745-1.083-7.966-1.875-2.222-4.864-3.161-7.67-2.409l-38.799 10.378c-3.901-4.698-8.096-9.16-12.565-13.352l94.42-29.717-32.15 75.051c-1.512 3.53-.113 7.633 3.241 9.503l81.332 45.361zm22.136-95.55h69.205c2.646 10.091 3.943 21.587 3.943 34.96 0 1.787-.061 3.703-.177 5.738z"/><path d="m240.352 250.949c0-13.604-11.068-24.673-24.673-24.673s-24.673 11.068-24.673 24.673 11.068 24.673 24.673 24.673 24.673-11.068 24.673-24.673zm-34.346 0c0-5.334 4.339-9.673 9.673-9.673s9.673 4.339 9.673 9.673-4.339 9.673-9.673 9.673-9.673-4.339-9.673-9.673z"/><path d="m135.447 288.325c0 13.604 11.068 24.673 24.673 24.673s24.673-11.068 24.673-24.673-11.068-24.673-24.673-24.673-24.673 11.069-24.673 24.673zm34.346 0c0 5.334-4.339 9.673-9.673 9.673s-9.673-4.339-9.673-9.673 4.339-9.673 9.673-9.673 9.673 4.339 9.673 9.673z"/><path d="m216.689 339.262c13.604 0 24.673-11.068 24.673-24.673s-11.068-24.672-24.673-24.672-24.673 11.067-24.673 24.672 11.069 24.673 24.673 24.673zm0-34.345c5.334 0 9.673 4.339 9.673 9.672 0 5.334-4.339 9.673-9.673 9.673s-9.673-4.339-9.673-9.673c.001-5.333 4.339-9.672 9.673-9.672z"/></g></g><g transform="matrix(0.1171875 0 0 0.1171875 250.99999975681305 268)" id="L1_1"><g><g><g><circle cx="227" cy="249" r="101" fill="#fcdd2e"/><path d="m256.662 153.241c-11.938 13.178-26.025 32.075-26.025 72.758 0 23.087 9.656 60.553 18.368 89.656 1.548 5.172-1.249 10.678-6.357 12.427-10.264 3.514-21.272 5.421-32.727 5.421-23.447 0-45.027-7.991-62.169-21.395 18.51 23.673 47.346 38.882 79.734 38.847 55.146-.06 100.462-45.051 100.901-100.195.364-45.961-29.971-84.888-71.725-97.519z" fill="#f9c301"/></g><g><path d="m357.72 158.285c-9.051-9.992-19.546-25.131-19.546-50.262 0-41.187 8.377-52.356 8.377-72.6 0-15.421-13.898-27.923-29.319-27.923s-29.319 12.502-29.319 27.923c0 20.244 8.377 31.414 8.377 72.6 0 25.131-10.495 40.27-19.546 50.262-12.293 13.571-27.923 26.527-27.923 67.714 0 37.696 30.715 124.956 30.715 124.956h75.393s30.716-87.26 30.716-124.956c-.001-41.187-15.631-54.143-27.925-67.714z" fill="#fbe77b"/><path d="m380.398 191.003c-9.477 74.107-45.354 129.236-88.173 129.236-8.562 0-16.845-2.206-24.697-6.325 6.413 21.147 12.006 37.041 12.006 37.041h75.393s30.716-87.26 30.716-124.956c.001-14.909-2.048-26.117-5.245-34.996z" fill="#fcdd2e"/><path d="m253.318 193.189h127.827c-4.134-12.736-10.574-20.86-16.986-27.923h-93.856c-6.41 7.063-12.851 15.187-16.985 27.923z" fill="#f9c301"/></g></g><path d="m377.22 381.26h-121.22-121.22l10.102-30.305h111.118 111.118z" fill="#da8659"/><path d="m367.118 350.955h-25.254l10.101 30.305h25.255z" fill="#c56e37"/></g><g><path d="m397.423 504.5h-141.423-141.423v-123.24h141.423 141.423z" fill="#818181"/><path d="m378.23 381.26h19.193v123.24h-19.193z" fill="#595959"/><path d="m144.882 411.565h222.236v62.63h-222.236z" fill="#fbe77b"/></g><g><path d="m213 173.347c-6.695 0-12.122 5.427-12.122 12.122s5.427 12.122 12.122 12.122 12.122-5.427 12.122-12.122c0-6.694-5.427-12.122-12.122-12.122z"/><path d="m173.169 199.628c-6.695 0-12.122 5.427-12.122 12.122s5.427 12.122 12.122 12.122 12.122-5.427 12.122-12.122-5.427-12.122-12.122-12.122z"/><circle cx="213" cy="227" r="12"/><path d="m318.875 404.065h-173.993c-4.143 0-7.5 3.358-7.5 7.5v62.63c0 4.142 3.357 7.5 7.5 7.5h222.236c4.143 0 7.5-3.358 7.5-7.5v-62.63c0-4.142-3.357-7.5-7.5-7.5h-13.261c-4.143 0-7.5 3.358-7.5 7.5s3.357 7.5 7.5 7.5h5.761v47.63h-207.236v-47.63h166.493c4.143 0 7.5-3.358 7.5-7.5s-3.357-7.5-7.5-7.5z"/><path d="m238.398 441.87c0 4.142 3.357 7.5 7.5 7.5h90.915c4.143 0 7.5-3.358 7.5-7.5s-3.357-7.5-7.5-7.5h-90.915c-4.142 0-7.5 3.358-7.5 7.5z"/><path d="m175.187 434.37c-4.143 0-7.5 3.358-7.5 7.5s3.357 7.5 7.5 7.5h34.346c4.143 0 7.5-3.358 7.5-7.5s-3.357-7.5-7.5-7.5z"/><path d="m397.423 373.76h-14.797l-8.392-25.177c-1.021-3.063-3.887-5.128-7.115-5.128h-1.72c3.615-10.85 9.546-29.265 14.947-48.854 1.101-3.993-1.244-8.123-5.237-9.224-3.996-1.103-8.122 1.245-9.224 5.236-6.22 22.56-13.159 43.556-16.31 52.842h-64.685c-6.417-18.932-28.569-86.53-28.569-117.456 0-10.172.996-18.417 2.677-25.31h116.469c1.681 6.892 2.677 15.138 2.677 25.31 0 7.505-1.353 17.909-4.02 30.923-.831 4.058 1.784 8.021 5.842 8.853 4.06.833 8.022-1.784 8.854-5.841 2.869-14.003 4.324-25.42 4.324-33.935 0-40.621-14.817-56.546-26.724-69.343-1.063-1.143-2.113-2.272-3.141-3.406-8.197-9.048-17.605-22.366-17.605-45.227 0-23.436 2.722-36.444 5.122-47.922 1.747-8.349 3.255-15.559 3.255-24.678 0-19.201-16.862-35.423-36.82-35.423s-36.819 16.222-36.819 35.423c0 9.12 1.509 16.33 3.255 24.678 2.4 11.478 5.122 24.486 5.122 47.922 0 21.344-8.201 34.366-15.96 43.364-14.162-6.53-29.756-9.968-45.459-9.968-59.832 0-108.51 48.682-108.51 108.52 0 39.779 21.516 74.621 53.516 93.515h-27.495c-3.229 0-6.095 2.066-7.115 5.128l-8.392 25.177h-14.797c-4.143 0-7.5 3.358-7.5 7.5v23.829c0 4.142 3.357 7.5 7.5 7.5s7.5-3.358 7.5-7.5v-16.328h267.846v108.24h-267.846v-56.821c0-4.142-3.357-7.5-7.5-7.5s-7.5 3.358-7.5 7.5v64.321c0 4.142 3.357 7.5 7.5 7.5h282.846c4.143 0 7.5-3.358 7.5-7.5v-123.24c0-4.142-3.358-7.5-7.5-7.5zm-132.806-188.071c2.678-5.034 5.8-9.154 9.06-12.923h87.109c3.26 3.769 6.382 7.889 9.06 12.923zm39.172-77.666c0-24.988-3.017-39.407-5.44-50.993-1.641-7.844-2.937-14.04-2.937-21.607 0-10.88 10.196-20.423 21.819-20.423s21.819 9.543 21.819 20.423c0 7.567-1.296 13.763-2.937 21.607-2.424 11.586-5.44 26.005-5.44 50.993 0 23.673 8.58 39.303 16.784 49.743h-60.453c8.206-10.439 16.785-26.069 16.785-49.743zm-169.929 141.917c0-51.567 41.948-93.52 93.51-93.52 11.941 0 23.802 2.308 34.806 6.71-10.402 12.054-20.856 28.749-20.856 62.869 0 28.073 15.85 80.958 24.949 109.004-12.042 5.5-25.254 8.407-38.587 8.452h-.698c-51.383-.209-93.124-42.077-93.124-93.515zm16.427 108.515h211.426l5.101 15.305h-221.628z"/></g></g><g transform="matrix(0.1171875 0 0 0.1171875 151 196)" id="L1_2"><path d="m256 213.616h128.837l30.52-148.848-97.62 40.509-61.737-77.594-61.737 77.594-97.62-40.509 30.52 148.848z" fill="#fbe77b"/><path d="m256 127.087c-52.363 0-100.053 20.36-135.596 53.566l6.759 32.964h128.837 128.837l6.759-32.964c-35.543-33.207-83.233-53.566-135.596-53.566z" fill="#fcdd2e"/><g><circle cx="256" cy="325" r="178" fill="#818181"/><path d="m365.927 185.099c23.701 30.311 37.83 68.468 37.83 109.927 0 98.647-79.969 178.616-178.616 178.616-41.459 0-79.616-14.129-109.927-37.83 32.692 41.81 83.599 68.688 140.786 68.688 98.647 0 178.616-79.969 178.616-178.616 0-57.187-26.879-108.093-68.689-140.785z" fill="#595959"/><circle cx="230" cy="211" r="20" fill="#434343"/><circle cx="160" cy="258" r="20" fill="#434343"/><circle cx="230" cy="291" r="20" fill="#434343"/></g><circle cx="256" cy="27" r="20" fill="#fbe77b"/><path d="m264.525 9.408c1.212 2.593 1.908 5.474 1.908 8.525 0 11.146-9.036 20.183-20.183 20.183-3.051 0-5.933-.697-8.525-1.908 3.216 6.88 10.178 11.657 18.274 11.657 11.146 0 20.183-9.036 20.183-20.183.001-8.095-4.777-15.058-11.657-18.274z" fill="#fcdd2e"/><circle cx="96" cy="64" r="20" fill="#fbe77b"/><circle cx="415" cy="64" r="20" fill="#fbe77b"/><path d="m423.882 46.602c1.212 2.593 1.908 5.474 1.908 8.525 0 11.146-9.036 20.183-20.183 20.183-3.051 0-5.933-.697-8.525-1.908 3.216 6.88 10.178 11.657 18.274 11.657 11.146 0 20.183-9.036 20.183-20.183 0-8.096-4.777-15.058-11.657-18.274z" fill="#fcdd2e"/><path d="m105.169 46.602c1.212 2.593 1.909 5.474 1.909 8.525 0 11.146-9.036 20.183-20.183 20.183-3.051 0-5.933-.697-8.525-1.908 3.216 6.88 10.178 11.657 18.274 11.657 11.146 0 20.183-9.036 20.183-20.183-.001-8.096-4.779-15.058-11.658-18.274z" fill="#fcdd2e"/><ellipse cx="256px" cy="97px" rx="15px" ry="20px" fill="#fb636f"/><circle cx="360" cy="132" r="15" fill="#fb636f"/><circle cx="152" cy="132" r="15" fill="#fb636f"/><g><path d="m417.45 249.016c-3.811 1.624-5.583 6.029-3.959 9.84 9.04 21.214 13.624 43.766 13.624 67.029 0 94.353-76.761 171.115-171.115 171.115s-171.115-76.762-171.115-171.115 76.761-171.116 171.115-171.116c56.278 0 108.979 27.699 140.973 74.096 2.352 3.41 7.021 4.266 10.432 1.917 3.41-2.352 4.268-7.022 1.917-10.433-4.455-6.46-9.285-12.582-14.439-18.355l6.36-31.022c.831-4.058-1.783-8.021-5.842-8.854-4.054-.825-8.021 1.784-8.854 5.842l-4.339 21.167c-34.041-31.395-78.959-49.358-126.208-49.358-48.652 0-92.995 18.773-126.189 49.445l-4.374-21.336c-.833-4.058-4.797-6.671-8.854-5.842-4.058.832-6.673 4.796-5.842 8.854l6.4 31.217c-29.373 32.916-47.256 76.295-47.256 123.779 0 102.623 83.491 186.114 186.115 186.114s186.115-83.491 186.115-186.115c0-25.296-4.988-49.826-14.825-72.91-1.623-3.811-6.028-5.584-9.84-3.959z"/><path d="m230.587 184.146c-15.298 0-27.743 12.445-27.743 27.743s12.445 27.743 27.743 27.743 27.743-12.445 27.743-27.743-12.445-27.743-27.743-27.743zm0 40.487c-7.026 0-12.743-5.717-12.743-12.743s5.717-12.743 12.743-12.743 12.743 5.717 12.743 12.743-5.717 12.743-12.743 12.743z"/><path d="m132.414 258.359c0 15.298 12.445 27.743 27.743 27.743s27.743-12.445 27.743-27.743-12.445-27.743-27.743-27.743-27.743 12.446-27.743 27.743zm40.486 0c0 7.026-5.717 12.743-12.743 12.743s-12.743-5.717-12.743-12.743 5.717-12.743 12.743-12.743 12.743 5.717 12.743 12.743z"/><path d="m230.587 263.289c-15.298 0-27.743 12.445-27.743 27.743s12.445 27.743 27.743 27.743 27.743-12.445 27.743-27.743-12.445-27.743-27.743-27.743zm0 40.486c-7.026 0-12.743-5.717-12.743-12.743s5.717-12.743 12.743-12.743 12.743 5.717 12.743 12.743-5.717 12.743-12.743 12.743z"/><path d="m94.669 92.48 9.017 43.989c.729 3.55 3.853 5.996 7.34 5.996.499-.001 1.006-.051 1.514-.154 4.058-.832 6.673-4.796 5.842-8.854l-9.021-44.006c3.537-1.837 6.627-4.414 9.068-7.527l72.956 30.281c.932.387 1.907.573 2.873.573 2.235 0 4.415-1.001 5.871-2.83l45.149-56.747c3.299 1.391 6.922 2.162 10.722 2.162s7.422-.77 10.722-2.162l45.149 56.747c1.456 1.829 3.636 2.83 5.871 2.83.965 0 1.941-.187 2.873-.573l72.956-30.281c2.441 3.112 5.532 5.689 9.068 7.527l-9.048 44.139c-.831 4.058 1.784 8.021 5.842 8.854.508.104 1.015.154 1.514.154 3.487 0 6.612-2.446 7.34-5.996l9.044-44.123c14.345-1.017 25.708-13.005 25.708-27.604 0-15.265-12.418-27.683-27.683-27.683s-27.683 12.418-27.683 27.683c0 1.076.068 2.135.188 3.179l-67.774 28.13-41.637-52.333c3.288-4.552 5.233-10.136 5.233-16.168 0-15.265-12.418-27.683-27.683-27.683s-27.683 12.418-27.683 27.683c0 6.032 1.945 11.616 5.233 16.168l-41.638 52.335-67.774-28.13c.12-1.044.188-2.104.188-3.179 0-15.265-12.418-27.683-27.683-27.683s-27.682 12.417-27.682 27.682c0 14.6 11.362 26.587 25.708 27.604zm320.687-40.287c6.993 0 12.683 5.689 12.683 12.683s-5.689 12.683-12.683 12.683-12.683-5.689-12.683-12.683 5.69-12.683 12.683-12.683zm-159.356-37.193c6.993 0 12.683 5.689 12.683 12.683s-5.69 12.682-12.683 12.682-12.683-5.689-12.683-12.683 5.69-12.682 12.683-12.682zm-159.356 37.193c6.993 0 12.683 5.689 12.683 12.683s-5.689 12.683-12.683 12.683-12.683-5.689-12.683-12.683 5.689-12.683 12.683-12.683z"/><path d="m233.363 97.385c0 15.523 9.943 27.683 22.637 27.683s22.637-12.159 22.637-27.683-9.944-27.683-22.637-27.683-22.637 12.159-22.637 27.683zm30.274 0c0 7.259-4.032 12.683-7.637 12.683s-7.637-5.424-7.637-12.683 4.032-12.683 7.637-12.683 7.637 5.424 7.637 12.683z"/><path d="m337.866 132.344c0 12.481 10.155 22.637 22.638 22.637 12.481 0 22.637-10.155 22.637-22.637s-10.155-22.637-22.637-22.637c-12.483 0-22.638 10.155-22.638 22.637zm30.275 0c0 4.211-3.426 7.637-7.637 7.637-4.212 0-7.638-3.426-7.638-7.637s3.426-7.637 7.638-7.637c4.211 0 7.637 3.426 7.637 7.637z"/><path d="m130.013 132.344c0 12.481 10.155 22.637 22.637 22.637s22.638-10.155 22.638-22.637-10.155-22.637-22.638-22.637c-12.482 0-22.637 10.155-22.637 22.637zm30.274 0c0 4.211-3.426 7.637-7.638 7.637-4.211 0-7.637-3.426-7.637-7.637s3.426-7.637 7.637-7.637c4.212 0 7.638 3.426 7.638 7.637z"/></g></g><g transform="matrix(0.12072744322205378 -0.03449355422342301 0.03449355422342301 0.12072744322205378 -5.6582499123692145 224.16090310883445)" id="L1_3"><path d="m356.571 73.161c-2.376-13.657-14.203-24.067-28.502-24.235-2.243-8.714-10.13-15.161-19.543-15.161-.923 0-1.824.083-2.714.203-5.225-8.025-14.27-13.335-24.561-13.335-2.097 0-4.141.225-6.113.643-2.686-8.003-10.232-13.776-19.14-13.776s-16.454 5.773-19.141 13.776c-1.972-.419-4.016-.643-6.113-.643-10.29 0-19.335 5.31-24.561 13.335-.89-.12-1.791-.203-2.714-.203-9.414 0-17.3 6.448-19.543 15.161-14.298.168-26.126 10.578-28.502 24.235z" fill="#eff3f5"/><path d="m287.815 73.161h68.756c-2.376-13.657-14.203-24.067-28.502-24.235-2.243-8.714-10.13-15.161-19.543-15.161-.923 0-1.824.083-2.714.203-5.225-8.025-14.27-13.335-24.561-13.335-2.097 0-4.141.225-6.113.643-2.686-8.003-10.232-13.776-19.14-13.776-7.188 0-13.484 3.761-17.062 9.417 24.739 8.789 43.563 30.058 48.879 56.244z" fill="#c9e2e7"/><path d="m154.982 73.161h202.033v48.488h-202.033z" fill="#fdf3c4"/><path d="m325.699 73.161h31.315v48.488h-31.315z" fill="#fbe77b"/><path d="m154.982 121.648v165.256c0 10.281 1.962 20.468 5.78 30.013l8.643 21.608c3.818 9.546 5.78 19.732 5.78 30.013v115.758c0 11.158 9.045 20.203 20.203 20.203h121.219c11.158 0 20.203-9.045 20.203-20.203v-115.757c0-10.281 1.962-20.468 5.78-30.013l8.643-21.608c3.818-9.546 5.78-19.732 5.78-30.013v-165.257z" fill="#fcdd2e"/><path d="m325.699 121.648v165.256c0 10.281-1.962 20.468-5.78 30.013l-8.643 21.608c-3.818 9.546-5.78 19.732-5.78 30.013v115.758c0 11.158-9.045 20.203-20.203 20.203h31.315c11.158 0 20.203-9.045 20.203-20.203v-115.757c0-10.281 1.962-20.467 5.78-30.013l8.643-21.608c3.818-9.546 5.78-19.732 5.78-30.013v-165.257z" fill="#fcdd2e"/><path d="m336.811 484.297v-20.203h-161.626v20.203c0 11.158 9.045 20.203 20.203 20.203h121.219c11.159 0 20.204-9.045 20.204-20.203z" fill="#eff3f5"/><path d="m325.699 121.648v165.256c0 10.281-1.962 20.468-5.78 30.013l-8.643 21.608c-3.818 9.546-5.78 19.732-5.78 30.013v115.758c0 11.158-9.045 20.203-20.203 20.203h31.315c11.158 0 20.203-9.045 20.203-20.203v-115.757c0-10.281 1.962-20.467 5.78-30.013l8.643-21.608c3.818-9.546 5.78-19.732 5.78-30.013v-165.257z" fill="#f9c301"/><path d="m336.811 484.297v-20.203h-161.626v20.203c0 11.158 9.045 20.203 20.203 20.203h121.219c11.159 0 20.204-9.045 20.204-20.203z" fill="#eff3f5"/><path d="m305.496 484.297c0 11.158-9.045 20.203-20.203 20.203h31.315c11.158 0 20.203-9.045 20.203-20.203v-20.203h-31.315z" fill="#c9e2e7"/><circle cx="211" cy="182" r="14" fill="#f9c301"/><circle cx="300" cy="182" r="14" fill="#f9c301"/><circle cx="255" cy="225" r="15" fill="#f9c301"/><circle cx="226" cy="271" r="15" fill="#f9c301"/><circle cx="255" cy="320" r="15" fill="#f9c301"/><g><path d="m357.014 221.786c-4.142 0-7.5 3.357-7.5 7.5v57.618c0 9.369-1.764 18.53-5.243 27.229l-8.643 21.607c-4.191 10.479-6.317 21.514-6.317 32.799v88.055h-146.626v-26.808c0-4.143-3.358-7.5-7.5-7.5s-7.5 3.357-7.5 7.5v54.511c0 15.275 12.428 27.703 27.703 27.703h121.22c15.275 0 27.703-12.428 27.703-27.703v-115.758c0-9.368 1.764-18.529 5.244-27.229l8.643-21.607c4.191-10.478 6.316-21.513 6.316-32.799v-57.618c0-4.142-3.358-7.5-7.5-7.5zm-40.406 275.214h-121.22c-7.004 0-12.703-5.698-12.703-12.703v-12.703h146.626v12.703c0 7.005-5.699 12.703-12.703 12.703z"/><path d="m167.685 394.696c0 4.143 3.358 7.5 7.5 7.5s7.5-3.357 7.5-7.5v-26.157c0-11.285-2.125-22.32-6.317-32.799l-8.643-21.607c-3.479-8.698-5.243-17.859-5.243-27.229v-157.756h187.034l.002 65.079c0 4.143 3.358 7.5 7.5 7.5 4.143 0 7.5-3.358 7.5-7.5l-.004-121.067c0-1.44-.413-2.781-1.117-3.923-3.594-14.363-15.485-25.107-29.967-27.371-4.427-9.135-13.607-15.248-23.994-15.587-7.307-8.725-18.304-13.633-29.862-13.109-4.96-8.066-13.811-13.17-23.576-13.17s-18.616 5.104-23.577 13.17c-.559-.025-1.118-.038-1.677-.038-10.986 0-21.232 4.845-28.185 13.147-10.386.339-19.567 6.452-23.994 15.587-14.482 2.264-26.372 13.008-29.967 27.371-.704 1.142-1.117 2.483-1.117 3.923v213.744c0 11.286 2.125 22.321 6.316 32.799l8.643 21.607c3.479 8.699 5.244 17.86 5.244 27.229v26.157zm-5.203-280.548v-33.488h187.033l.001 33.488zm21.532-57.723c3.389-.039 6.331-2.347 7.175-5.629 1.445-5.612 6.495-9.531 12.28-9.531.481 0 1.024.043 1.711.136 2.875.386 5.708-.913 7.288-3.341 4.047-6.217 10.879-9.928 18.275-9.928 1.523 0 3.056.161 4.554.479 3.732.795 7.456-1.336 8.668-4.949 1.74-5.181 6.575-8.662 12.031-8.662s10.292 3.481 12.031 8.662c1.212 3.612 4.936 5.737 8.668 4.949 1.499-.318 3.031-.479 4.554-.479 7.396 0 14.228 3.711 18.275 9.928 1.58 2.427 4.414 3.719 7.288 3.341.687-.093 1.23-.136 1.711-.136 5.786 0 10.835 3.919 12.28 9.531.845 3.282 3.786 5.59 7.175 5.629 7.185.085 13.631 3.67 17.556 9.235h-179.08c3.93-5.565 10.375-9.15 17.56-9.235z"/></g></g><g transform="matrix(0.1171875 0 0 0.1171875 7 -24)" id="L1_4"><path d="m504.5 443.89h-60.61l14.143 60.61h46.467z" fill="#818181"/><path d="m443.89 443.89 6.129 26.264h54.481v-26.264z" fill="#595959"/><path d="m7.5 443.89h60.61l-14.143 60.61h-46.467z" fill="#818181"/><path d="m68.11 443.89-6.129 26.264h-54.481v-26.264z" fill="#595959"/><path d="m7.5 7.5h497v436.39h-497z" fill="#da8659"/><path d="m485.307 7.5v407.096c0 5.579-4.523 10.102-10.102 10.102h-467.705v19.193h497v-436.391z" fill="#c56e37"/><path d="m287.315 226.705h171.728v202.033h-171.728z" transform="matrix(0 1 -1 0 700.9 -45.457)" fill="#818181"/><path d="m287.315 22.652h171.728v202.033h-171.728z" transform="matrix(0 -1 1 0 249.51 496.848)" fill="#818181"/><g><g><path d="m373.198 343.953c0-17.333-14.051-31.384-31.384-31.384s-31.384 14.051-31.384 31.384v37.307h62.767v-37.307z" fill="#b9ea6a"/><path d="m347.048 313.012c3.301 4.969 5.228 10.929 5.228 17.341v50.907h20.922v-37.307c0-15.549-11.31-28.449-26.15-30.941z" fill="#a1e42c"/><path d="m310.431 381.26h62.767v32.325h-62.767z" fill="#eff3f5"/><path d="m352.276 381.26h20.922v32.325h-20.922z" fill="#c9e2e7"/></g><g><path d="m435.927 343.953c0-17.333-14.051-31.384-31.384-31.384s-31.384 14.051-31.384 31.384v37.307h62.767v-37.307z" fill="#b9ea6a"/><path d="m409.776 313.012c3.301 4.969 5.228 10.929 5.228 17.341v50.907h20.922v-37.307c.001-15.549-11.31-28.449-26.15-30.941z" fill="#a1e42c"/><path d="m373.159 381.26h62.767v32.325h-62.767z" fill="#eff3f5"/><path d="m415.004 381.26h20.922v32.325h-20.922z" fill="#c9e2e7"/></g></g><path d="m52.957 226.705h171.728v202.033h-171.728z" transform="matrix(0 1 -1 0 466.543 188.9)" fill="#818181"/><path d="m52.957 22.652h171.728v202.033h-171.728z" transform="matrix(0 -1 1 0 15.152 262.49)" fill="#818181"/><g><g><path d="m138.841 343.953c0-17.333-14.051-31.384-31.384-31.384s-31.384 14.051-31.384 31.384v37.307h62.767v-37.307z" fill="#fbe77b"/><path d="m112.69 313.012c3.301 4.969 5.228 10.929 5.228 17.341v50.907h20.922v-37.307c.001-15.549-11.309-28.449-26.15-30.941z" fill="#fcdd2e"/><path d="m76.073 381.26h62.767v32.325h-62.767z" fill="#eff3f5"/><path d="m117.918 381.26h20.922v32.325h-20.922z" fill="#c9e2e7"/></g><g><path d="m201.569 343.953c0-17.333-14.051-31.384-31.384-31.384s-31.384 14.051-31.384 31.384v37.307h62.767v-37.307z" fill="#fbe77b"/><path d="m175.418 313.012c3.301 4.969 5.228 10.929 5.228 17.341v50.907h20.922v-37.307c.001-15.549-11.309-28.449-26.15-30.941z" fill="#fcdd2e"/><path d="m138.802 381.26h62.767v32.325h-62.767z" fill="#eff3f5"/><path d="m180.646 381.26h20.922v32.325h-20.922z" fill="#c9e2e7"/></g></g><g><g><path d="m373.198 139.9c0-17.333-14.051-31.384-31.384-31.384s-31.384 14.051-31.384 31.384v37.307h62.767v-37.307z" fill="#97e4f9"/><path d="m347.048 108.959c3.301 4.969 5.228 10.929 5.228 17.341v50.907h20.922v-37.307c0-15.549-11.31-28.449-26.15-30.941z" fill="#0acefa"/><path d="m310.431 177.207h62.767v32.325h-62.767z" fill="#eff3f5"/><path d="m352.276 177.207h20.922v32.325h-20.922z" fill="#c9e2e7"/></g><g><path d="m435.927 139.9c0-17.333-14.051-31.384-31.384-31.384s-31.384 14.051-31.384 31.384v37.307h62.767v-37.307z" fill="#97e4f9"/><path d="m409.776 108.959c3.301 4.969 5.228 10.929 5.228 17.341v50.907h20.922v-37.307c.001-15.549-11.31-28.449-26.15-30.941z" fill="#0acefa"/><path d="m373.159 177.207h62.767v32.325h-62.767z" fill="#eff3f5"/><path d="m415.004 177.207h20.922v32.325h-20.922z" fill="#c9e2e7"/></g></g><g><g><path d="m138.841 139.9c0-17.333-14.051-31.384-31.384-31.384s-31.384 14.051-31.384 31.384v37.307h62.767v-37.307z" fill="#fb636f"/><path d="m112.69 108.959c3.301 4.969 5.228 10.929 5.228 17.341v50.907h20.922v-37.307c.001-15.549-11.309-28.449-26.15-30.941z" fill="#fa4954"/><path d="m76.073 177.207h62.767v32.325h-62.767z" fill="#eff3f5"/><path d="m117.918 177.207h20.922v32.325h-20.922z" fill="#c9e2e7"/></g><g><path d="m201.569 139.9c0-17.333-14.051-31.384-31.384-31.384s-31.384 14.051-31.384 31.384v37.307h62.767v-37.307z" fill="#fb636f"/><path d="m175.418 108.959c3.301 4.969 5.228 10.929 5.228 17.341v50.907h20.922v-37.307c.001-15.549-11.309-28.449-26.15-30.941z" fill="#fa4954"/><path d="m138.802 177.207h62.767v32.325h-62.767z" fill="#eff3f5"/><path d="m180.646 177.207h20.922v32.325h-20.922z" fill="#c9e2e7"/></g></g><g><path d="m504.5 132.143c-4.143 0-7.5 3.357-7.5 7.5v296.748h-482v-147.284c0-4.143-3.357-7.5-7.5-7.5s-7.5 3.357-7.5 7.5v215.393c0 4.143 3.357 7.5 7.5 7.5h46.468c3.485 0 6.512-2.401 7.304-5.796l12.789-54.813h363.878l12.789 54.813c.792 3.395 3.818 5.796 7.304 5.796h46.468c4.143 0 7.5-3.357 7.5-7.5v-364.857c0-4.143-3.357-7.5-7.5-7.5zm-456.483 364.857h-33.017v-45.609h43.658zm448.983 0h-33.017l-10.642-45.609h43.659z"/><path d="m504.5 0h-497c-4.143 0-7.5 3.357-7.5 7.5v246.541c0 4.143 3.357 7.5 7.5 7.5s7.5-3.357 7.5-7.5v-239.041h482v89.636c0 4.143 3.357 7.5 7.5 7.5s7.5-3.357 7.5-7.5v-97.136c0-4.143-3.357-7.5-7.5-7.5z"/><path d="m264.663 413.585c0 4.143 3.357 7.5 7.5 7.5h202.032c4.143 0 7.5-3.357 7.5-7.5v-171.728c0-4.143-3.357-7.5-7.5-7.5h-202.032c-4.143 0-7.5 3.357-7.5 7.5zm163.764-39.825h-47.729s-.015-30.319-.02-30.576c.409-12.814 10.952-23.114 23.864-23.114 13.17 0 23.884 10.714 23.884 23.884v29.806zm-62.768 0h-47.729v-29.807c0-13.17 10.714-23.884 23.884-23.884 12.912 0 23.456 10.3 23.864 23.114-.004.257-.019 30.577-.019 30.577zm-47.728 15h47.729v17.325h-47.729zm62.767 17.325v-17.325h47.729v17.325zm-101.035-156.728h187.032v156.728h-23.269v-62.132c0-21.44-17.443-38.884-38.884-38.884-12.863 0-24.282 6.283-31.364 15.937-7.082-9.654-18.501-15.937-31.364-15.937-21.44 0-38.884 17.443-38.884 38.884v62.132h-23.268v-156.728z"/><path d="m272.163 217.032h202.032c4.143 0 7.5-3.357 7.5-7.5v-171.727c0-4.143-3.357-7.5-7.5-7.5h-202.032c-4.143 0-7.5 3.357-7.5 7.5v171.728c0 4.142 3.358 7.499 7.5 7.499zm156.264-47.325h-47.729s-.015-30.319-.02-30.576c.409-12.814 10.952-23.114 23.864-23.114 13.17 0 23.884 10.714 23.884 23.884v29.806zm-62.768 0h-47.729v-29.807c0-13.17 10.714-23.884 23.884-23.884 12.912 0 23.456 10.3 23.864 23.114-.004.258-.019 30.577-.019 30.577zm-47.728 15h47.729v17.325h-47.729zm62.767 17.325v-17.325h47.729v17.325zm-101.035-156.727h187.032v156.728h-23.269v-62.133c0-21.44-17.443-38.884-38.884-38.884-12.863 0-24.282 6.283-31.364 15.937-7.082-9.654-18.501-15.937-31.364-15.937-21.44 0-38.884 17.443-38.884 38.884v62.132h-23.268v-156.727z"/><path d="m30.305 413.585c0 4.143 3.357 7.5 7.5 7.5h202.032c4.143 0 7.5-3.357 7.5-7.5v-171.728c0-4.143-3.357-7.5-7.5-7.5h-202.032c-4.143 0-7.5 3.357-7.5 7.5zm163.764-39.825h-47.729v-29.807c0-.258-.015-.513-.02-.77.409-12.814 10.952-23.114 23.864-23.114 13.17 0 23.884 10.714 23.884 23.884v29.807zm-62.767-29.807v29.807h-47.729v-29.807c0-13.17 10.714-23.884 23.884-23.884 12.912 0 23.456 10.3 23.864 23.114-.005.257-.019.512-.019.77zm-47.729 44.807h47.729v17.325h-47.729zm62.768 17.325v-17.325h47.729v17.325zm-101.036-156.728h187.032v156.728h-23.268v-24.825-37.307c0-21.44-17.443-38.884-38.884-38.884-12.863 0-24.282 6.283-31.364 15.937-7.082-9.654-18.501-15.937-31.364-15.937-21.44 0-38.884 17.443-38.884 38.884v37.307 24.825h-23.268z"/><path d="m37.805 217.032h202.032c4.143 0 7.5-3.357 7.5-7.5v-171.727c0-4.143-3.357-7.5-7.5-7.5h-202.032c-4.143 0-7.5 3.357-7.5 7.5v171.728c0 4.142 3.357 7.499 7.5 7.499zm156.264-47.325h-47.729s-.015-30.319-.02-30.576c.409-12.814 10.952-23.114 23.864-23.114 13.17 0 23.884 10.714 23.884 23.884v29.806zm-62.767 0h-47.729v-29.807c0-13.17 10.714-23.884 23.884-23.884 12.912 0 23.456 10.3 23.864 23.114-.005.258-.019 30.577-.019 30.577zm-47.729 15h47.729v17.325h-47.729zm62.768 17.325v-17.325h47.729v17.325zm-101.036-156.727h187.032v156.728h-23.268v-62.133c0-21.44-17.443-38.884-38.884-38.884-12.863 0-24.282 6.283-31.364 15.937-7.082-9.654-18.501-15.937-31.364-15.937-21.44 0-38.884 17.443-38.884 38.884v62.132h-23.268z"/></g></g><g transform="matrix(0.1171875 0 0 0.1171875 161 310)" id="L1_5"><g><circle cx="302" cy="296" r="202" fill="#b9ea6a"/><path d="m426.735 137.437c26.833 34.316 42.829 77.516 42.829 124.454 0 111.683-90.537 202.219-202.219 202.219-46.938 0-90.138-15.996-124.454-42.829 37.012 47.335 94.646 77.765 159.39 77.765 111.683 0 202.219-90.537 202.219-202.219 0-64.744-30.43-122.378-77.765-159.39z" fill="#a1e42c"/></g><g><path d="m270.96 379.706c9.206-9.725 8.626-25.153-.843-34.622l-56.405-56.405c9.597 9.597 25.158 9.597 34.755 0s9.597-25.158 0-34.755c9.597 9.597 25.158 9.597 34.755 0s9.597-25.158 0-34.755l86.526 86.526c9.469 9.469 24.897 10.049 34.622.843 10.089-9.551 10.254-25.477.495-35.236l-148.288-148.287 52.939-.559c13.573 0 24.575-11.003 24.575-24.575 0-13.573-11.003-24.575-24.575-24.575l-78.946.531c-12.254.082-24.251-3.068-35.128-8.714-.045-.023-.09-.047-.135-.07l-24.589-12.667c-4.52-2.328-8.651-5.344-12.246-8.939l-30.488-30.488-120.484 120.482 30.488 30.488c3.595 3.595 6.611 7.726 8.939 12.246l12.667 24.589c2.328 4.52 5.344 8.651 8.939 12.246l167.191 167.191c9.76 9.76 25.685 9.595 35.236-.495z" fill="#fcd0a3"/><path d="m279.8 238.662c3.286 3.288 5.419 7.279 6.449 11.484 6.378-9.544 5.402-22.541-3.021-30.969l-17.379-17.379-4.313 4.31c-3.947 3.945-3.948 10.342-.002 14.288z" fill="#ffb983"/><path d="m244.862 273.6c3.286 3.288 5.419 7.279 6.449 11.484 6.378-9.544 5.402-22.541-3.021-30.969l-17.379-17.379-4.313 4.31c-3.947 3.945-3.948 10.342-.002 14.288z" fill="#ffb983"/><g><path d="m334.091 97.88c0-13.573-11.003-24.575-24.575-24.575l-78.946.531c-12.254.082-24.251-3.068-35.127-8.714-.045-.023-.09-.047-.135-.07l-24.589-12.667c-4.52-2.328-8.651-5.344-12.246-8.939l-30.488-30.488-12.968 12.968 36.447 36.356c3.595 3.595 7.726 6.61 12.246 8.939l24.589 12.667c.045.023.09.047.135.07 10.877 5.646 22.873 8.797 35.127 8.714l78.946-.531c13.036 0 23.695 10.151 24.518 22.979 4.368-4.436 7.066-10.522 7.066-17.24z" fill="#ffb983"/><path d="m404.865 271.302-148.288-148.287-5.913 5.26c-4.346 3.866-4.537 10.594-.418 14.701l147.608 147.163c4.391 4.391 6.767 10.032 7.139 15.778 9.462-9.609 9.423-25.063-.128-34.615z" fill="#ffb983"/><path d="m196.335 271.302-5.775 5.729c-3.971 3.94-3.984 10.358-.028 14.314l72.576 72.576c4.494 4.494 6.982 10.331 7.375 16.264.005.002.003.001.008.003 9.692-9.69 9.253-25.476-.374-35.103z" fill="#ffb983"/></g></g><g><path d="m423.458 125.644c-3.379-2.396-8.061-1.6-10.456 1.78-2.396 3.379-1.599 8.061 1.78 10.456 51.483 36.505 82.218 95.926 82.218 158.952 0 107.363-87.351 194.71-194.72 194.71s-194.72-87.347-194.72-194.71c0-10.617.878-21.198 2.579-31.609l58.322 58.322c1.464 1.464 3.384 2.196 5.303 2.196s3.839-.732 5.303-2.196c2.929-2.93 2.929-7.678 0-10.607l-105.23-105.232c-3.051-3.051-5.599-6.541-7.574-10.376l-12.667-24.59c-2.687-5.216-6.154-9.965-10.303-14.114l-30.488-30.488c-2.929-2.928-7.678-2.928-10.606 0-2.929 2.93-2.929 7.678 0 10.607l30.489 30.488c3.05 3.05 5.599 6.541 7.574 10.376l12.667 24.59c2.687 5.216 6.153 9.965 10.303 14.114l34.078 34.078c-3.139 14.531-4.748 29.457-4.748 44.441 0 115.635 94.08 209.71 209.72 209.71s209.72-94.075 209.72-209.71c-.002-67.88-33.101-131.876-88.544-171.188z"/><path d="m153.169 48.749c4.15 4.149 8.898 7.615 14.114 10.302l24.705 12.728c12.213 6.341 25.579 9.639 38.633 9.558l78.896-.531c9.415 0 17.075 7.66 17.075 17.075s-7.66 17.075-17.154 17.075l-52.939.56c-3.019.032-5.725 1.871-6.865 4.667-1.141 2.795-.494 6.002 1.641 8.137l56.24 56.241c1.465 1.464 3.384 2.196 5.304 2.196 1.919 0 3.839-.732 5.304-2.196 2.929-2.93 2.929-7.678 0-10.607l-43.627-43.627 35.021-.37c14.923 0 27.498-10.244 31.064-24.069 15.567 3.104 30.687 8.103 45.046 14.912 1.038.492 2.132.726 3.209.726 2.807 0 5.499-1.584 6.781-4.288 1.775-3.742.18-8.216-3.563-9.99-16.318-7.739-33.548-13.306-51.294-16.597-3.29-14.214-16.051-24.844-31.294-24.844l-78.945.531c-.136.001-.271.002-.406.002-10.502 0-21.287-2.719-31.216-7.872l-24.746-12.75c-3.834-1.975-7.326-4.523-10.376-7.574l-30.49-30.49c-2.929-2.928-7.678-2.928-10.606 0-2.929 2.93-2.929 7.678 0 10.607z"/><path d="m288.526 259.228c4.435-4.435 7.296-9.854 8.585-15.563l67.333 67.334c12.369 12.368 32.591 12.809 45.081.986 6.351-6.012 9.914-14.132 10.034-22.864.119-8.734-3.216-16.946-9.392-23.123l-67.027-67.028c-2.93-2.928-7.678-2.928-10.607 0-2.929 2.93-2.929 7.678 0 10.607l67.028 67.028c3.288 3.287 5.064 7.659 5 12.311-.063 4.647-1.963 8.972-5.348 12.176-6.645 6.29-17.484 5.979-24.161-.7l-103.903-103.903c-2.93-2.928-7.678-2.928-10.607 0-2.929 2.93-2.929 7.678 0 10.607l17.378 17.378c.002.001.003.003.005.004 6.652 6.658 6.651 17.488-.005 24.143-3.225 3.226-7.513 5.002-12.074 5.002-4.558 0-8.845-1.775-12.069-4.997-.002-.002-.003-.004-.005-.005l-17.377-17.378c-2.929-2.928-7.678-2.928-10.606 0-2.929 2.93-2.929 7.678 0 10.607l17.377 17.378c.002.001.003.003.005.004 6.652 6.659 6.651 17.488-.005 24.144-3.225 3.225-7.513 5.001-12.074 5.001-4.559 0-8.845-1.775-12.069-4.997-.002-.002-.003-.004-.005-.005l-17.377-17.378c-2.929-2.928-7.678-2.928-10.606 0-2.929 2.93-2.929 7.678 0 10.607l73.782 73.783c6.678 6.677 6.991 17.516.699 24.161-3.203 3.385-7.526 5.283-12.174 5.348-4.631.063-9.022-1.712-12.311-5l-36.961-36.962c-2.929-2.928-7.678-2.928-10.606 0-2.929 2.93-2.929 7.678 0 10.607l36.961 36.962c6.069 6.068 14.103 9.395 22.668 9.395.151 0 .303-.002.455-.004 8.732-.119 16.851-3.683 22.862-10.033 11.824-12.49 11.382-32.713-.985-45.081l-37.196-37.195c5.843-1.32 11.207-4.264 15.545-8.604 6.964-6.964 10.05-16.36 9.258-25.48.931.08 1.871.121 2.816.121 8.564.001 16.62-3.336 22.678-9.394z"/></g></g><g transform="matrix(0.10465760180530316 0.04808592415018514 -0.04808592415018514 0.10465760180530316 115.67021569809785 53.31216338947662)" id="L1_6"><path d="m171.146 39.825-86.564 20.61c-24.507 5.835-42.849 26.221-46.073 51.205l-13.377 103.67c-.78 6.042 3.926 11.394 10.019 11.394h80.436v277.796h140.413 140.413v-277.795h80.436c6.092 0 10.798-5.352 10.019-11.394l-13.377-103.67c-3.224-24.985-21.566-45.37-46.073-51.205l-86.564-20.61h-169.708z" fill="#97e4f9"/><path d="m376.606 504.5h19.806v-328.719h-5.664c-7.811 0-14.142 6.332-14.142 14.142z" fill="#0acefa"/><path d="m115.587 474.195v30.305h140.413 140.413v-30.305z" fill="#fbe77b"/><path d="m376.606 474.195h19.806v30.305h-19.806z" fill="#fcdd2e"/><path d="m473.49 111.641c-3.224-24.985-21.566-45.371-46.073-51.206l-14.755-3.513c17.268 9.026 29.466 26.021 32.038 45.952l14.847 123.831h17.301c6.092 0 10.798-5.352 10.019-11.394z" fill="#0acefa"/><path d="m396.413 190.339v36.366h80.436c6.092 0 10.798-5.352 10.019-11.394l-3.222-24.972z" fill="#fbe77b"/><path d="m483.645 190.339h-28.457l4.36 36.366h17.301c6.092 0 10.798-5.352 10.019-11.394z" fill="#fcdd2e"/><path d="m115.587 190.339v36.366h-80.436c-6.092 0-10.798-5.352-10.019-11.394l3.222-24.972z" fill="#fbe77b"/><path d="m190.339 7.5 65.661 80.813-43.437 42.427-41.417-90.915z" fill="#0acefa"/><path d="m321.661 7.5-65.661 80.813 43.437 42.427 41.417-90.915z" fill="#0acefa"/><path d="m295.396 39.825h-78.792l-26.265-32.325h131.322z" fill="#09a6ee"/><path d="m295.396 39.825h-78.792l39.396 48.488z" fill="#595959"/><g><path d="m494.306 214.351-13.377-103.67c-3.601-27.901-24.406-51.025-51.774-57.541l-83.473-19.875-17.573-29.594c-1.148-1.877-3.423-3.67-6.449-3.671h-131.321c-2.259.045-4.844 1.038-6.449 3.671l-17.571 29.594-83.474 19.875c-27.368 6.516-48.174 29.64-51.774 57.541l-13.377 103.67c-.647 5.018.897 10.075 4.238 13.875s8.159 5.979 13.219 5.979h72.936v112.371c0 4.142 3.358 7.5 7.5 7.5s7.5-3.358 7.5-7.5v-171.389c0-4.142-3.358-7.5-7.5-7.5s-7.5 3.358-7.5 7.5v7.652h-71.202l9.063-70.239c2.807-21.756 19.031-39.788 40.372-44.869l9.314-2.218c8.146 14.164 12.453 30.281 12.453 46.621v18.604c0 4.142 3.358 7.5 7.5 7.5s7.5-3.358 7.5-7.5v-18.604c0-17.487-4.26-34.75-12.335-50.221l56.127-13.364 38.858 85.298c1.882 4.187 8.003 6.121 12.066 2.256l30.696-29.983v42.801c0 4.142 3.358 7.5 7.5 7.5 4.143 0 7.5-3.358 7.5-7.5v-42.8l30.696 29.982c2.993 2.824 8.888 3.277 12.065-2.256l38.859-85.298 56.127 13.364c-8.074 15.471-12.334 32.734-12.334 50.221v18.604c0 4.142 3.357 7.5 7.5 7.5s7.5-3.358 7.5-7.5v-18.604c0-16.341 4.307-32.458 12.453-46.621l9.314 2.218c21.341 5.081 37.565 23.113 40.372 44.869l9.063 70.239h-71.202v-7.652c0-4.142-3.357-7.5-7.5-7.5s-7.5 3.358-7.5 7.5v83.884c0 4.142 3.357 7.5 7.5 7.5s7.5-3.358 7.5-7.5v-24.866h72.936c5.06 0 9.877-2.179 13.218-5.979 3.342-3.799 4.887-8.856 4.24-13.875zm-386.219-16.512v21.366h-72.936c-1.024 0-1.664-.554-1.954-.884s-.757-1.035-.626-2.05l2.378-18.432zm147.913-121.42-23.639-29.094h47.278zm35.826-44.094h-71.652l-14.077-17.325h99.806zm-76.865 85.588-35.365-77.63 11.702-19.708 54.564 67.156zm82.077 0-30.901-30.182 54.564-67.156 11.702 19.709zm181.764 100.408c-.29.33-.93.884-1.953.884h-72.936v-21.366h73.137l2.378 18.431c.132 1.016-.335 1.721-.626 2.051z"/><path d="m396.413 286.594c-4.143 0-7.5 3.358-7.5 7.5v172.602h-265.826v-85.083c0-4.142-3.358-7.5-7.5-7.5s-7.5 3.358-7.5 7.5v122.887c0 4.142 3.358 7.5 7.5 7.5h280.826c4.143 0 7.5-3.358 7.5-7.5v-210.406c0-4.142-3.357-7.5-7.5-7.5zm-273.326 210.406v-15.305h265.826v15.305z"/><path d="m356.944 197.839c4.143 0 7.5-3.358 7.5-7.5s-3.357-7.5-7.5-7.5h-57.508c-4.143 0-7.5 3.358-7.5 7.5s3.357 7.5 7.5 7.5z"/></g></g><g transform="matrix(0.1171875 0 0 0.1171875 232.00000018596643 147)" id="L1_8"><g><path d="m305.572 192.112c-11.082-12.234-23.931-30.769-23.931-61.537 0-50.426 10.256-64.101 10.256-88.887 0-18.882-17.016-34.188-35.897-34.188s-35.897 15.306-35.897 34.187c0 24.786 10.256 38.461 10.256 88.887 0 30.769-12.849 49.304-23.931 61.537-15.051 16.616-34.187 32.478-34.187 82.904 0 46.153 37.606 152.989 37.606 152.989h92.306s37.606-106.836 37.606-152.989c0-50.425-19.136-66.287-34.187-82.903z" fill="#c9e2e7"/><path d="m177.748 234.846h156.503c-5.061-15.594-12.947-25.54-20.796-34.187h-114.91c-7.85 8.648-15.735 18.594-20.797 34.187z" fill="#fa4954"/><path d="m182.109 223.983c-1.604 3.305-3.074 6.9-4.361 10.863h156.503c-1.286-3.963-2.756-7.558-4.361-10.863-22.102-11.609-47.241-18.191-73.891-18.191s-51.788 6.583-73.89 18.191z" fill="#fa2a3b"/></g><g><path d="m446.096 245.929c-5.702-15.491-10.687-37.486.821-66.022 18.86-46.767 33.486-55.613 42.756-78.6 7.062-17.511-2.994-38.07-20.505-45.132s-39.016.77-46.078 18.281c-9.27 22.987-4.873 39.505-23.733 86.272-11.508 28.536-30.357 40.92-45.21 48.121-20.173 9.78-43.853 17.335-62.713 64.101-17.262 42.803-22.342 155.951-22.342 155.951l85.607 34.523s74.834-85.017 92.096-127.821c18.86-46.766 7.045-68.635-.699-89.674z" fill="#eff3f5"/><path d="m415.445 365.238c0-62.123-35.715-116.054-87.688-142.358-12.646 8.818-25.307 22.753-36.323 50.07-17.262 42.803-22.342 155.951-22.342 155.951l85.607 34.523s31.851-36.187 58.788-73.23c1.284-8.133 1.958-16.467 1.958-24.956z" fill="#c9e2e7"/><path d="m311.566 237.755 145.145 58.533c1.138-16.355-2.455-28.528-6.5-39.484l-106.571-42.978c-10.515 5.085-21.548 11.36-32.074 23.929z" fill="#fb636f"/><path d="m327.76 222.881c-5.439 3.793-10.881 8.531-16.193 14.874l68.702 27.706c-14.214-17.667-32.106-32.253-52.509-42.58z" fill="#fa4954"/></g><g><path d="m65.904 245.929c5.702-15.491 10.687-37.486-.821-66.022-18.86-46.767-33.486-55.613-42.756-78.6-7.062-17.511 2.994-38.07 20.505-45.132s39.016.77 46.078 18.281c9.27 22.987 4.873 39.505 23.733 86.272 11.508 28.536 30.357 40.92 45.21 48.121 20.173 9.78 43.853 17.335 62.713 64.101 17.262 42.803 22.342 155.951 22.342 155.951l-85.607 34.523s-74.834-85.017-92.096-127.821c-18.86-46.766-7.045-68.635.699-89.674z" fill="#eff3f5"/><path d="m96.555 365.238c0-62.123 35.715-116.054 87.688-142.358 12.646 8.818 25.307 22.753 36.323 50.07 17.262 42.803 22.342 155.951 22.342 155.951l-85.607 34.523s-31.851-36.187-58.788-73.23c-1.284-8.133-1.958-16.467-1.958-24.956z" fill="#c9e2e7"/><path d="m200.434 237.755-145.145 58.534c-1.138-16.355 2.455-28.528 6.5-39.484l106.571-42.978c10.515 5.084 21.548 11.359 32.074 23.928z" fill="#fb636f"/><path d="m184.24 222.881c5.439 3.793 10.881 8.531 16.193 14.874l-68.702 27.706c14.214-17.667 32.106-32.253 52.509-42.58z" fill="#fa4954"/></g><g><circle cx="256" cy="365" r="139" fill="#97e4f9"/><path d="m341.708 255.471c18.479 23.633 29.495 53.383 29.495 85.708 0 76.912-62.35 139.262-139.262 139.262-32.325 0-62.075-11.016-85.708-29.495 25.489 32.598 65.179 53.554 109.767 53.554 76.912 0 139.262-62.35 139.262-139.262 0-44.588-20.956-84.278-53.554-109.767z" fill="#0acefa"/><circle cx="235" cy="277" r="17" fill="#434343"/><circle cx="180" cy="314" r="17" fill="#434343"/><circle cx="236" cy="341" r="17" fill="#434343"/></g><g><path d="m495.435 71.664c-4.722-10.153-13.273-18.332-23.457-22.438-10.187-4.114-22.022-4.158-32.47-.119-10.91 4.216-19.211 12.224-23.374 22.547-4.111 10.192-5.686 18.99-7.508 29.178-1.922 10.74-4.1 22.913-9.948 40.219-1.326 3.924.78 8.18 4.705 9.506s8.181-.78 9.506-4.705c6.206-18.366 8.588-31.68 10.502-42.379 1.745-9.753 3.124-17.457 6.654-26.209 2.593-6.432 7.874-11.463 14.869-14.167 6.934-2.68 14.751-2.667 21.451.038 6.696 2.7 12.333 8.113 15.468 14.853 3.161 6.798 3.474 14.084.881 20.516-3.529 8.75-7.878 15.252-13.384 23.486-8.014 11.983-17.987 26.896-29.365 55.114-11.459 28.404-7.672 50.891-2.636 66.418l-75.19-30.322c11-5.879 25.06-15.617 36.146-33.648 2.169-3.529 1.067-8.148-2.461-10.317-3.53-2.17-8.148-1.066-10.317 2.461-10.571 17.194-24.059 25.281-34.628 30.405-1.692.82-3.41 1.625-5.148 2.438-4.54 2.126-9.303 4.362-14.17 7.112-5.266-8.226-11.195-14.61-16.561-20.378-1.31-1.409-2.605-2.801-3.872-4.2-10.237-11.3-21.988-27.935-21.988-56.504 0-28.864 3.352-44.881 6.309-59.013 2.12-10.129 3.951-18.877 3.951-29.867 0-22.597-19.875-41.689-43.4-41.689s-43.4 19.092-43.4 41.69c0 10.989 1.831 19.737 3.951 29.867 2.957 14.132 6.309 30.149 6.309 59.013 0 28.57-11.75 45.205-21.989 56.506-1.266 1.397-2.561 2.79-3.871 4.198-5.366 5.768-11.294 12.153-16.561 20.378-4.866-2.75-9.63-4.986-14.17-7.112-1.738-.814-3.456-1.618-5.147-2.438-10.57-5.125-24.058-13.212-34.628-30.406-2.169-3.528-6.788-4.631-10.317-2.461-3.528 2.169-4.63 6.789-2.461 10.317 11.086 18.031 25.146 27.768 36.146 33.648l-75.19 30.322c5.036-15.53 8.823-38.016-2.635-66.417-11.379-28.219-21.352-43.132-29.366-55.115-5.506-8.233-9.855-14.736-13.384-23.485-2.594-6.432-2.281-13.718.88-20.517 3.135-6.739 8.772-12.153 15.472-14.854 6.695-2.704 14.512-2.716 21.447-.037 6.995 2.704 12.275 7.734 14.869 14.167 3.53 8.751 4.909 16.456 6.654 26.208 1.915 10.699 4.297 24.013 10.502 42.379 1.326 3.925 5.586 6.029 9.506 4.705 3.924-1.326 6.03-5.582 4.705-9.506-5.848-17.307-8.026-29.479-9.948-40.219-1.823-10.188-3.397-18.986-7.508-29.177-4.163-10.325-12.464-18.333-23.374-22.548-10.449-4.039-22.283-3.994-32.467.117-10.187 4.107-18.738 12.287-23.46 22.439-4.931 10.603-5.354 22.127-1.191 32.452 4.11 10.188 9.076 17.614 14.827 26.213 8.027 12.002 17.124 25.606 27.923 52.387 10.691 26.5 6.011 46.317.736 60.625-.65 1.769-1.331 3.544-2.019 5.339-7.551 19.706-16.948 44.23 1.403 89.727 12.815 31.759 55.191 84.653 79.28 113.36.002.002.012.002.016.004 26.726 36.488 69.869 60.231 118.46 60.231 48.589 0 91.73-23.741 118.456-60.225.002-.002.012-.002.014-.004 24.089-28.707 66.47-81.606 79.286-113.366 18.35-45.495 8.953-70.02 1.402-89.726-.688-1.795-1.368-3.57-2.021-5.344-5.272-14.303-9.953-34.119.738-60.621 10.799-26.78 19.896-40.384 27.923-52.386 5.75-8.599 10.717-16.026 14.827-26.214 4.164-10.323 3.74-21.848-1.19-32.45zm-170.789 163.279c6.348-5.75 12.848-9.631 19.31-12.902l100.334 40.462c2.392 6.856 4.386 14.142 4.969 22.693zm-86.786-104.373c0-30.417-3.675-47.976-6.627-62.085-2.029-9.698-3.632-17.358-3.632-26.794-.001-14.219 13.27-26.691 28.399-26.691s28.4 12.472 28.4 26.69c0 9.437-1.603 17.096-3.632 26.794-2.953 14.109-6.627 31.669-6.627 62.085 0 30.622 11.922 50.065 22.398 62.589h-81.076c10.475-12.524 22.397-31.967 22.397-62.588zm-35.953 77.589h108.186c3.142 3.59 6.207 7.433 8.995 11.825-3.149 2.493-6.299 5.35-9.422 8.652-16.63-6.556-34.734-10.16-53.665-10.16-18.59 0-36.73 3.461-53.691 10.133-3.115-3.291-6.256-6.139-9.397-8.625 2.787-4.392 5.852-8.235 8.994-11.825zm-134.197 54.344 100.334-40.462c6.462 3.271 12.962 7.152 19.31 12.902l-124.613 50.253c.584-8.551 2.577-15.837 4.969-22.693zm188.29 234.497c-72.654 0-131.762-59.108-131.762-131.762 0-5.176.303-10.39.901-15.497.481-4.114-2.463-7.84-6.577-8.321-4.118-.484-7.84 2.463-8.321 6.577-.665 5.683-1.002 11.484-1.002 17.241 0 10.763 1.175 21.254 3.385 31.364-16.857-22.355-33.614-46.824-40.467-63.807-4.952-12.276-7.668-22.633-8.853-31.651l83.086-33.506c-11.501 12.895-20.679 27.746-27.07 44.044-1.512 3.856.388 8.208 4.245 9.72 3.852 1.511 8.208-.389 9.72-4.245 19.934-50.834 68.103-83.681 122.716-83.681 72.654 0 131.762 59.108 131.762 131.762s-59.109 131.762-131.763 131.762zm143.378-100.404c2.209-10.108 3.384-20.598 3.384-31.359 0-37.473-14.125-71.705-37.32-97.669l83.256 33.575c-1.185 9.018-3.901 19.374-8.853 31.65-6.853 16.983-23.61 41.449-40.467 63.803z"/><path d="m235.817 302.098c13.595 0 24.656-11.061 24.656-24.656s-11.061-24.655-24.656-24.655-24.655 11.061-24.655 24.655c0 13.595 11.06 24.656 24.655 24.656zm0-34.311c5.324 0 9.656 4.332 9.656 9.655 0 5.324-4.332 9.656-9.656 9.656s-9.655-4.332-9.655-9.656 4.331-9.655 9.655-9.655z"/><path d="m180.314 290.125c-13.595 0-24.655 11.061-24.655 24.655 0 13.595 11.061 24.656 24.655 24.656 13.595 0 24.656-11.061 24.656-24.656 0-13.594-11.061-24.655-24.656-24.655zm0 34.311c-5.324 0-9.655-4.332-9.655-9.656s4.332-9.655 9.655-9.655c5.324 0 9.656 4.332 9.656 9.655 0 5.324-4.332 9.656-9.656 9.656z"/><path d="m236.826 316.363c-13.595 0-24.655 11.061-24.655 24.656s11.061 24.655 24.655 24.655c13.595 0 24.656-11.061 24.656-24.655 0-13.596-11.061-24.656-24.656-24.656zm0 34.311c-5.324 0-9.655-4.332-9.655-9.655 0-5.324 4.332-9.656 9.655-9.656 5.324 0 9.656 4.332 9.656 9.656 0 5.323-4.332 9.655-9.656 9.655z"/></g></g><g transform="matrix(0.0711357050470316 0.015807934364899533 -0.015807934364899533 0.0711357050470316 52.817123452775746 249.0922018475996)" id="L1_9"><path d="m356.571 73.161c-2.376-13.657-14.203-24.067-28.502-24.235-2.243-8.714-10.13-15.161-19.543-15.161-.923 0-1.824.083-2.714.203-5.225-8.025-14.27-13.335-24.561-13.335-2.097 0-4.141.225-6.113.643-2.686-8.003-10.232-13.776-19.14-13.776s-16.454 5.773-19.141 13.776c-1.972-.419-4.016-.643-6.113-.643-10.29 0-19.335 5.31-24.561 13.335-.89-.12-1.791-.203-2.714-.203-9.414 0-17.3 6.448-19.543 15.161-14.298.168-26.126 10.578-28.502 24.235z" fill="#eff3f5"/><path d="m287.815 73.161h68.756c-2.376-13.657-14.203-24.067-28.502-24.235-2.243-8.714-10.13-15.161-19.543-15.161-.923 0-1.824.083-2.714.203-5.225-8.025-14.27-13.335-24.561-13.335-2.097 0-4.141.225-6.113.643-2.686-8.003-10.232-13.776-19.14-13.776-7.188 0-13.484 3.761-17.062 9.417 24.739 8.789 43.563 30.058 48.879 56.244z" fill="#c9e2e7"/><path d="m154.982 73.161h202.033v48.488h-202.033z" fill="#fdf3c4"/><path d="m325.699 73.161h31.315v48.488h-31.315z" fill="#fbe77b"/><path d="m154.982 121.648v165.256c0 10.281 1.962 20.468 5.78 30.013l8.643 21.608c3.818 9.546 5.78 19.732 5.78 30.013v115.758c0 11.158 9.045 20.203 20.203 20.203h121.219c11.158 0 20.203-9.045 20.203-20.203v-115.757c0-10.281 1.962-20.468 5.78-30.013l8.643-21.608c3.818-9.546 5.78-19.732 5.78-30.013v-165.257z" fill="#fcdd2e"/><path d="m325.699 121.648v165.256c0 10.281-1.962 20.468-5.78 30.013l-8.643 21.608c-3.818 9.546-5.78 19.732-5.78 30.013v115.758c0 11.158-9.045 20.203-20.203 20.203h31.315c11.158 0 20.203-9.045 20.203-20.203v-115.757c0-10.281 1.962-20.467 5.78-30.013l8.643-21.608c3.818-9.546 5.78-19.732 5.78-30.013v-165.257z" fill="#fcdd2e"/><path d="m336.811 484.297v-20.203h-161.626v20.203c0 11.158 9.045 20.203 20.203 20.203h121.219c11.159 0 20.204-9.045 20.204-20.203z" fill="#eff3f5"/><path d="m325.699 121.648v165.256c0 10.281-1.962 20.468-5.78 30.013l-8.643 21.608c-3.818 9.546-5.78 19.732-5.78 30.013v115.758c0 11.158-9.045 20.203-20.203 20.203h31.315c11.158 0 20.203-9.045 20.203-20.203v-115.757c0-10.281 1.962-20.467 5.78-30.013l8.643-21.608c3.818-9.546 5.78-19.732 5.78-30.013v-165.257z" fill="#f9c301"/><path d="m336.811 484.297v-20.203h-161.626v20.203c0 11.158 9.045 20.203 20.203 20.203h121.219c11.159 0 20.204-9.045 20.204-20.203z" fill="#eff3f5"/><path d="m305.496 484.297c0 11.158-9.045 20.203-20.203 20.203h31.315c11.158 0 20.203-9.045 20.203-20.203v-20.203h-31.315z" fill="#c9e2e7"/><circle cx="211" cy="182" r="14" fill="#f9c301"/><circle cx="300" cy="182" r="14" fill="#f9c301"/><circle cx="255" cy="225" r="15" fill="#f9c301"/><circle cx="226" cy="271" r="15" fill="#f9c301"/><circle cx="255" cy="320" r="15" fill="#f9c301"/><g><path d="m357.014 221.786c-4.142 0-7.5 3.357-7.5 7.5v57.618c0 9.369-1.764 18.53-5.243 27.229l-8.643 21.607c-4.191 10.479-6.317 21.514-6.317 32.799v88.055h-146.626v-26.808c0-4.143-3.358-7.5-7.5-7.5s-7.5 3.357-7.5 7.5v54.511c0 15.275 12.428 27.703 27.703 27.703h121.22c15.275 0 27.703-12.428 27.703-27.703v-115.758c0-9.368 1.764-18.529 5.244-27.229l8.643-21.607c4.191-10.478 6.316-21.513 6.316-32.799v-57.618c0-4.142-3.358-7.5-7.5-7.5zm-40.406 275.214h-121.22c-7.004 0-12.703-5.698-12.703-12.703v-12.703h146.626v12.703c0 7.005-5.699 12.703-12.703 12.703z"/><path d="m167.685 394.696c0 4.143 3.358 7.5 7.5 7.5s7.5-3.357 7.5-7.5v-26.157c0-11.285-2.125-22.32-6.317-32.799l-8.643-21.607c-3.479-8.698-5.243-17.859-5.243-27.229v-157.756h187.034l.002 65.079c0 4.143 3.358 7.5 7.5 7.5 4.143 0 7.5-3.358 7.5-7.5l-.004-121.067c0-1.44-.413-2.781-1.117-3.923-3.594-14.363-15.485-25.107-29.967-27.371-4.427-9.135-13.607-15.248-23.994-15.587-7.307-8.725-18.304-13.633-29.862-13.109-4.96-8.066-13.811-13.17-23.576-13.17s-18.616 5.104-23.577 13.17c-.559-.025-1.118-.038-1.677-.038-10.986 0-21.232 4.845-28.185 13.147-10.386.339-19.567 6.452-23.994 15.587-14.482 2.264-26.372 13.008-29.967 27.371-.704 1.142-1.117 2.483-1.117 3.923v213.744c0 11.286 2.125 22.321 6.316 32.799l8.643 21.607c3.479 8.699 5.244 17.86 5.244 27.229v26.157zm-5.203-280.548v-33.488h187.033l.001 33.488zm21.532-57.723c3.389-.039 6.331-2.347 7.175-5.629 1.445-5.612 6.495-9.531 12.28-9.531.481 0 1.024.043 1.711.136 2.875.386 5.708-.913 7.288-3.341 4.047-6.217 10.879-9.928 18.275-9.928 1.523 0 3.056.161 4.554.479 3.732.795 7.456-1.336 8.668-4.949 1.74-5.181 6.575-8.662 12.031-8.662s10.292 3.481 12.031 8.662c1.212 3.612 4.936 5.737 8.668 4.949 1.499-.318 3.031-.479 4.554-.479 7.396 0 14.228 3.711 18.275 9.928 1.58 2.427 4.414 3.719 7.288 3.341.687-.093 1.23-.136 1.711-.136 5.786 0 10.835 3.919 12.28 9.531.845 3.282 3.786 5.59 7.175 5.629 7.185.085 13.631 3.67 17.556 9.235h-179.08c3.93-5.565 10.375-9.15 17.56-9.235z"/></g></g></defs><g fi:class="KUsePattern"><pattern id="pattern_L1_0" width="350" height="350" patternUnits="userSpaceOnUse"><use xlink:href="#L1_0" x="-350" y="-350"/><use xlink:href="#L1_0" x="0" y="-350"/><use xlink:href="#L1_0" x="350" y="-350"/><use xlink:href="#L1_0" x="-350" y="0"/><use xlink:href="#L1_0" x="0" y="0"/><use xlink:href="#L1_0" x="350" y="0"/><use xlink:href="#L1_0" x="-350" y="350"/><use xlink:href="#L1_0" x="0" y="350"/><use xlink:href="#L1_0" x="350" y="350"/></pattern><rect x="0" y="0" width="100%" height="100%" fill="url(#pattern_L1_0)"/></g><g fi:class="KUsePattern"><pattern id="pattern_L1_1" width="350" height="350" patternUnits="userSpaceOnUse"><use xlink:href="#L1_1" x="-350" y="-350"/><use xlink:href="#L1_1" x="0" y="-350"/><use xlink:href="#L1_1" x="350" y="-350"/><use xlink:href="#L1_1" x="-350" y="0"/><use xlink:href="#L1_1" x="0" y="0"/><use xlink:href="#L1_1" x="350" y="0"/><use xlink:href="#L1_1" x="-350" y="350"/><use xlink:href="#L1_1" x="0" y="350"/><use xlink:href="#L1_1" x="350" y="350"/></pattern><rect x="0" y="0" width="100%" height="100%" fill="url(#pattern_L1_1)"/></g><g fi:class="KUsePattern"><pattern id="pattern_L1_2" width="350" height="350" patternUnits="userSpaceOnUse"><use xlink:href="#L1_2" x="-350" y="-350"/><use xlink:href="#L1_2" x="0" y="-350"/><use xlink:href="#L1_2" x="350" y="-350"/><use xlink:href="#L1_2" x="-350" y="0"/><use xlink:href="#L1_2" x="0" y="0"/><use xlink:href="#L1_2" x="350" y="0"/><use xlink:href="#L1_2" x="-350" y="350"/><use xlink:href="#L1_2" x="0" y="350"/><use xlink:href="#L1_2" x="350" y="350"/></pattern><rect x="0" y="0" width="100%" height="100%" fill="url(#pattern_L1_2)"/></g><g fi:class="KUsePattern"><pattern id="pattern_L1_3" width="350" height="350" patternUnits="userSpaceOnUse"><use xlink:href="#L1_3" x="-350" y="-350"/><use xlink:href="#L1_3" x="0" y="-350"/><use xlink:href="#L1_3" x="350" y="-350"/><use xlink:href="#L1_3" x="-350" y="0"/><use xlink:href="#L1_3" x="0" y="0"/><use xlink:href="#L1_3" x="350" y="0"/><use xlink:href="#L1_3" x="-350" y="350"/><use xlink:href="#L1_3" x="0" y="350"/><use xlink:href="#L1_3" x="350" y="350"/></pattern><rect x="0" y="0" width="100%" height="100%" fill="url(#pattern_L1_3)"/></g><g fi:class="KUsePattern"><pattern id="pattern_L1_4" width="350" height="350" patternUnits="userSpaceOnUse"><use xlink:href="#L1_4" x="-350" y="-350"/><use xlink:href="#L1_4" x="0" y="-350"/><use xlink:href="#L1_4" x="350" y="-350"/><use xlink:href="#L1_4" x="-350" y="0"/><use xlink:href="#L1_4" x="0" y="0"/><use xlink:href="#L1_4" x="350" y="0"/><use xlink:href="#L1_4" x="-350" y="350"/><use xlink:href="#L1_4" x="0" y="350"/><use xlink:href="#L1_4" x="350" y="350"/></pattern><rect x="0" y="0" width="100%" height="100%" fill="url(#pattern_L1_4)"/></g><g fi:class="KUsePattern"><pattern id="pattern_L1_5" width="350" height="350" patternUnits="userSpaceOnUse"><use xlink:href="#L1_5" x="-350" y="-350"/><use xlink:href="#L1_5" x="0" y="-350"/><use xlink:href="#L1_5" x="350" y="-350"/><use xlink:href="#L1_5" x="-350" y="0"/><use xlink:href="#L1_5" x="0" y="0"/><use xlink:href="#L1_5" x="350" y="0"/><use xlink:href="#L1_5" x="-350" y="350"/><use xlink:href="#L1_5" x="0" y="350"/><use xlink:href="#L1_5" x="350" y="350"/></pattern><rect x="0" y="0" width="100%" height="100%" fill="url(#pattern_L1_5)"/></g><g fi:class="KUsePattern"><pattern id="pattern_L1_6" width="350" height="350" patternUnits="userSpaceOnUse"><use xlink:href="#L1_6" x="-350" y="-350"/><use xlink:href="#L1_6" x="0" y="-350"/><use xlink:href="#L1_6" x="350" y="-350"/><use xlink:href="#L1_6" x="-350" y="0"/><use xlink:href="#L1_6" x="0" y="0"/><use xlink:href="#L1_6" x="350" y="0"/><use xlink:href="#L1_6" x="-350" y="350"/><use xlink:href="#L1_6" x="0" y="350"/><use xlink:href="#L1_6" x="350" y="350"/></pattern><rect x="0" y="0" width="100%" height="100%" fill="url(#pattern_L1_6)"/></g><g fi:class="KUsePattern"><pattern id="pattern_L1_8" width="350" height="350" patternUnits="userSpaceOnUse"><use xlink:href="#L1_8" x="-350" y="-350"/><use xlink:href="#L1_8" x="0" y="-350"/><use xlink:href="#L1_8" x="350" y="-350"/><use xlink:href="#L1_8" x="-350" y="0"/><use xlink:href="#L1_8" x="0" y="0"/><use xlink:href="#L1_8" x="350" y="0"/><use xlink:href="#L1_8" x="-350" y="350"/><use xlink:href="#L1_8" x="0" y="350"/><use xlink:href="#L1_8" x="350" y="350"/></pattern><rect x="0" y="0" width="100%" height="100%" fill="url(#pattern_L1_8)"/></g><g fi:class="KUsePattern"><pattern id="pattern_L1_9" width="350" height="350" patternUnits="userSpaceOnUse"><use xlink:href="#L1_9" x="-350" y="-350"/><use xlink:href="#L1_9" x="0" y="-350"/><use xlink:href="#L1_9" x="350" y="-350"/><use xlink:href="#L1_9" x="-350" y="0"/><use xlink:href="#L1_9" x="0" y="0"/><use xlink:href="#L1_9" x="350" y="0"/><use xlink:href="#L1_9" x="-350" y="350"/><use xlink:href="#L1_9" x="0" y="350"/><use xlink:href="#L1_9" x="350" y="350"/></pattern><rect x="0" y="0" width="100%" height="100%" fill="url(#pattern_L1_9)"/></g></svg>